<svg fill="none" height="400" viewBox="0 0 400 400" width="400" xmlns="http://www.w3.org/2000/svg"><g fill="#fff"><path d="m160.051 90.259c1.103 14.365 6.865 8.1729 8.054 14.468 1.977 10.463 11.32 18.031 17.136 20.645 3.393 1.524 6.888 2.289 10.562 2.35v.003c.013 0 .025-.001.038-.001s.025.001.038.001v-.003c3.674-.061 7.168-.825 10.562-2.35 5.816-2.614 15.159-10.182 17.136-20.645 1.189-6.2947 6.951-.103 8.054-14.468 0-5.7247-3.146-7.1494-3.146-7.1494s1.599-8.4734 2.226-14.9934c.776-8.1257-4.784-29.1162-34.441-29.1162-.13 0-.25.007-.377.0084-.005 0-.009 0-.013-.0003v-.0014c-.013.0003-.026.0007-.039.0007-.012 0-.025-.0004-.038-.0007v.0017c-.004.0004-.009.0004-.013.0004-.127-.0018-.247-.0088-.377-.0088-29.657 0-35.217 20.9909-34.441 29.1165.626 6.5201 2.226 14.9935 2.226 14.9935s-3.147 1.4243-3.147 7.149z"/><path d="m263.656 153.903c-14.962-7.578-36.649-17.042-37.69-17.377-.011-.004-.02-.004-.032-.008-.608-.216-1.263-.335-1.946-.335-2.542 0-4.699 1.62-5.498 3.88-.005-.003-.009-.005-.013-.008-2.549 10.346-41.004 10.346-43.796 0-.004.003-.008.005-.013.008-.8-2.258-2.956-3.88-5.498-3.88-.684 0-1.338.119-1.947.335-.011.004-.02.005-.031.008-1.041.335-22.728 9.799-37.691 17.377-6.719 3.403-10.774 7.636-10.774 12.09v35.059h77.531.067.037.108.109.109.068.037.107 77.531s0-20.333 0-35.059c0-4.454-4.055-8.687-10.775-12.09z"/><path d="m44.3245 250.207c1.1032 14.364 6.8653 8.173 8.054 14.467 1.9765 10.464 11.32 18.032 17.1362 20.646 3.3933 1.524 6.8876 2.289 10.5616 2.35v.003c.0127 0 .0254-.001.0382-.001.0127 0 .0254.001.0382.001v-.003c3.6736-.061 7.1676-.826 10.5615-2.35 5.8163-2.614 15.1598-10.182 17.1358-20.646 1.189-6.294 6.951-.103 8.054-14.467 0-5.725-3.146-7.15-3.146-7.15s1.6-8.473 2.226-14.993c.776-8.126-4.784-29.116-34.441-29.116-.1298 0-.25.007-.3765.008-.0046 0-.0089 0-.0135 0v-.002c-.0127.001-.0254.001-.0382.001-.0127 0-.0254 0-.0382-.001v.002c-.0045 0-.0088 0-.0134 0-.1266-.001-.2468-.008-.3765-.008-29.6569 0-35.2172 20.991-34.4411 29.116.6262 6.52 2.2257 14.994 2.2257 14.994s-3.1468 1.424-3.1468 7.149z"/><path d="m147.93 313.851c-14.963-7.578-36.65-17.043-37.69-17.377-.012-.004-.021-.005-.032-.008-.609-.216-1.263-.336-1.947-.336-2.542 0-4.698 1.621-5.498 3.88-.004-.002-.008-.004-.013-.007-2.548 10.345-41.0031 10.345-43.7955 0-.0042.003-.0085.005-.0127.007-.8-2.258-2.9562-3.88-5.4983-3.88-.6837 0-1.3379.12-1.9466.336-.0113.004-.0201.005-.0318.008-1.0404.334-22.7277 9.799-37.6902 17.377-6.71952 3.403-10.7749 7.635-10.7749 12.09v35.059h77.5311.0675.0372.1075.1093.1092.0676.0371.1068 77.5317s0-20.334 0-35.059c0-4.455-4.056-8.687-10.775-12.09z"/><path d="m282.09 250.207c1.103 14.364 6.865 8.173 8.054 14.467 1.976 10.464 11.32 18.032 17.136 20.646 3.393 1.524 6.888 2.289 10.562 2.35v.003c.012 0 .025-.001.038-.001s.025.001.038.001v-.003c3.674-.061 7.168-.826 10.562-2.35 5.816-2.614 15.159-10.182 17.136-20.646 1.188-6.294 6.951-.103 8.054-14.467 0-5.725-3.146-7.15-3.146-7.15s1.599-8.473 2.225-14.993c.777-8.126-4.783-29.116-34.441-29.116-.129 0-.25.007-.376.008-.005 0-.009 0-.014 0v-.002c-.012.001-.025.001-.038.001s-.025 0-.038-.001v.002c-.005 0-.009 0-.013 0-.127-.001-.247-.008-.377-.008-29.657 0-35.217 20.991-34.441 29.116.626 6.52 2.226 14.994 2.226 14.994s-3.147 1.424-3.147 7.149z"/><path d="m385.695 313.851c-14.962-7.578-36.649-17.043-37.69-17.377-.012-.004-.02-.005-.032-.008-.608-.216-1.263-.336-1.946-.336-2.542 0-4.699 1.621-5.499 3.88-.004-.002-.008-.004-.012-.007-2.549 10.345-41.004 10.345-43.796 0-.004.003-.009.005-.013.007-.8-2.258-2.956-3.88-5.498-3.88-.684 0-1.338.12-1.947.336-.011.004-.02.005-.032.008-1.04.334-22.727 9.799-37.69 17.377-6.719 3.403-10.775 7.635-10.775 12.09v35.059h77.531.068.037.108.109.109.068.037.107 77.531s0-20.334 0-35.059c0-4.455-4.055-8.687-10.775-12.09z"/></g><path d="m223.932 286.794-28.73-28.736" stroke="#fff" stroke-linecap="round" stroke-width="1.2"/><path d="m165.744 286.794 29.458-28.736" stroke="#fff" stroke-linecap="round" stroke-width="1.2"/><path d="m195.248 260.013-.046-31.056" stroke="#fff" stroke-linecap="round" stroke-width="1.2"/></svg>