<?xml version="1.0" encoding="UTF-8"?>
<svg width="374px" height="306px" viewBox="0 0 374 306" version="1.1" xmlns="http://www.w3.org/2000/svg" xmlns:xlink="http://www.w3.org/1999/xlink">
    <!-- Generator: Sketch 61.2 (89653) - https://sketch.com -->
    <title>Collaborate</title>
    <desc>Created with Sketch.</desc>
    <g id="Page-1" stroke="none" stroke-width="1" fill="none" fill-rule="evenodd">
        <g id="Collaborate" transform="translate(-14.000000, -48.000000)">
            <rect id="Rectangle" x="0" y="0" width="400" height="400"></rect>
            <g transform="translate(14.000000, 48.000000)">
                <g id="Team" transform="translate(110.000000, 0.000000)" fill="#FFFFFF" fill-rule="nonzero">
                    <g id="man-copy">
                        <path d="M39.2796208,48.7119276 C40.328178,62.3627274 45.8052086,56.478785 46.9350962,62.460671 C48.813761,72.4042738 57.6949054,79.5961292 63.2233556,82.0803642 C66.4486772,83.5288628 69.7701162,84.2557772 73.262282,84.3137438 L73.262282,84.316742 C73.2743808,84.316742 73.2864794,84.3154096 73.2985782,84.3154096 C73.310677,84.3154096 73.3227756,84.316742 73.3348744,84.316742 L73.3348744,84.3137438 C76.826704,84.2557772 80.1478072,83.529196 83.3738006,82.0803642 C88.902251,79.5961292 97.7833954,72.4042738 99.6620602,62.460671 C100.791948,56.479118 106.268978,62.3627274 107.317536,48.7119276 C107.317536,43.2717294 104.327131,41.917843 104.327131,41.917843 C104.327131,41.917843 105.847203,33.8654836 106.44273,27.6693876 C107.180417,19.9475044 101.895621,0 73.7059024,0 C73.5825624,0 73.4682966,0.00666282692 73.3479814,0.0079953923 C73.3436124,0.0079953923 73.3395794,0.0079953923 73.3352104,0.00766225096 L73.3352104,0.00632968558 C73.3231118,0.00666282692 73.311013,0.00699596826 73.2989142,0.00699596826 C73.2868156,0.00699596826 73.2747168,0.00666282692 73.262618,0.00632968558 L73.262618,0.0079953923 C73.258249,0.00832853364 73.2542162,0.00832853364 73.2498472,0.00832853364 C73.129532,0.00666282692 73.0152662,0 72.8919262,0 C44.7025432,0 39.417412,19.9478375 40.1550988,27.6697208 C40.7502894,33.8658166 42.2706972,41.9181762 42.2706972,41.9181762 C42.2706972,41.9181762 39.2796208,43.2717294 39.2796208,48.7119276 Z" id="Path"></path>
                        <path d="M137.758317,109.193493 C123.536204,101.992399 102.922409,92.997975 101.9331,92.6804616 C101.922007,92.6764468 101.913603,92.6757776 101.902846,92.6724318 C101.324321,92.4673364 100.702431,92.3535802 100.05264,92.3535802 C97.6363468,92.3535802 95.5868,93.8939712 94.8264138,96.0409498 C94.8223798,96.038273 94.818346,96.0366002 94.814312,96.0339236 C92.3917876,105.865204 55.8399318,105.865204 53.185688,96.0339236 C53.181654,96.0366002 53.1776202,96.038273 53.1735862,96.0409498 C52.4132,93.894975 50.3636532,92.3535802 47.9473596,92.3535802 C47.297569,92.3535802 46.6756792,92.4673364 46.0971538,92.6724318 C46.0863968,92.6764468 46.0779928,92.6774504 46.0668998,92.6804616 C45.077927,92.997975 24.4637962,101.992399 10.241683,109.193493 C3.85470766,112.427511 0,116.449792 0,120.682856 C0,134.676859 0,154 0,154 L73.6946018,154 L73.7588076,154 L73.794104,154 L73.8962956,154 L74.000168,154 L74.1040404,154 L74.1682464,154 L74.2035428,154 L74.3050622,154 L148,154 C148,154 148,134.676859 148,120.682856 C148,116.449792 144.145292,112.427511 137.758317,109.193493 Z" id="Path"></path>
                    </g>
                </g>
                <g id="Team" transform="translate(0.000000, 152.000000)" fill="#FFFFFF" fill-rule="nonzero">
                    <g id="man-copy">
                        <path d="M39.2796208,48.7119276 C40.328178,62.3627274 45.8052086,56.478785 46.9350962,62.460671 C48.813761,72.4042738 57.6949054,79.5961292 63.2233556,82.0803642 C66.4486772,83.5288628 69.7701162,84.2557772 73.262282,84.3137438 L73.262282,84.316742 C73.2743808,84.316742 73.2864794,84.3154096 73.2985782,84.3154096 C73.310677,84.3154096 73.3227756,84.316742 73.3348744,84.316742 L73.3348744,84.3137438 C76.826704,84.2557772 80.1478072,83.529196 83.3738006,82.0803642 C88.902251,79.5961292 97.7833954,72.4042738 99.6620602,62.460671 C100.791948,56.479118 106.268978,62.3627274 107.317536,48.7119276 C107.317536,43.2717294 104.327131,41.917843 104.327131,41.917843 C104.327131,41.917843 105.847203,33.8654836 106.44273,27.6693876 C107.180417,19.9475044 101.895621,0 73.7059024,0 C73.5825624,0 73.4682966,0.00666282692 73.3479814,0.0079953923 C73.3436124,0.0079953923 73.3395794,0.0079953923 73.3352104,0.00766225096 L73.3352104,0.00632968558 C73.3231118,0.00666282692 73.311013,0.00699596826 73.2989142,0.00699596826 C73.2868156,0.00699596826 73.2747168,0.00666282692 73.262618,0.00632968558 L73.262618,0.0079953923 C73.258249,0.00832853364 73.2542162,0.00832853364 73.2498472,0.00832853364 C73.129532,0.00666282692 73.0152662,0 72.8919262,0 C44.7025432,0 39.417412,19.9478375 40.1550988,27.6697208 C40.7502894,33.8658166 42.2706972,41.9181762 42.2706972,41.9181762 C42.2706972,41.9181762 39.2796208,43.2717294 39.2796208,48.7119276 Z" id="Path"></path>
                        <path d="M137.758317,109.193493 C123.536204,101.992399 102.922409,92.997975 101.9331,92.6804616 C101.922007,92.6764468 101.913603,92.6757776 101.902846,92.6724318 C101.324321,92.4673364 100.702431,92.3535802 100.05264,92.3535802 C97.6363468,92.3535802 95.5868,93.8939712 94.8264138,96.0409498 C94.8223798,96.038273 94.818346,96.0366002 94.814312,96.0339236 C92.3917876,105.865204 55.8399318,105.865204 53.185688,96.0339236 C53.181654,96.0366002 53.1776202,96.038273 53.1735862,96.0409498 C52.4132,93.894975 50.3636532,92.3535802 47.9473596,92.3535802 C47.297569,92.3535802 46.6756792,92.4673364 46.0971538,92.6724318 C46.0863968,92.6764468 46.0779928,92.6774504 46.0668998,92.6804616 C45.077927,92.997975 24.4637962,101.992399 10.241683,109.193493 C3.85470766,112.427511 0,116.449792 0,120.682856 C0,134.676859 0,154 0,154 L73.6946018,154 L73.7588076,154 L73.794104,154 L73.8962956,154 L74.000168,154 L74.1040404,154 L74.1682464,154 L74.2035428,154 L74.3050622,154 L148,154 C148,154 148,134.676859 148,120.682856 C148,116.449792 144.145292,112.427511 137.758317,109.193493 Z" id="Path"></path>
                    </g>
                </g>
                <g id="Team" transform="translate(226.000000, 152.000000)" fill="#FFFFFF" fill-rule="nonzero">
                    <g id="man-copy">
                        <path d="M39.2796208,48.7119276 C40.328178,62.3627274 45.8052086,56.478785 46.9350962,62.460671 C48.813761,72.4042738 57.6949054,79.5961292 63.2233556,82.0803642 C66.4486772,83.5288628 69.7701162,84.2557772 73.262282,84.3137438 L73.262282,84.316742 C73.2743808,84.316742 73.2864794,84.3154096 73.2985782,84.3154096 C73.310677,84.3154096 73.3227756,84.316742 73.3348744,84.316742 L73.3348744,84.3137438 C76.826704,84.2557772 80.1478072,83.529196 83.3738006,82.0803642 C88.902251,79.5961292 97.7833954,72.4042738 99.6620602,62.460671 C100.791948,56.479118 106.268978,62.3627274 107.317536,48.7119276 C107.317536,43.2717294 104.327131,41.917843 104.327131,41.917843 C104.327131,41.917843 105.847203,33.8654836 106.44273,27.6693876 C107.180417,19.9475044 101.895621,0 73.7059024,0 C73.5825624,0 73.4682966,0.00666282692 73.3479814,0.0079953923 C73.3436124,0.0079953923 73.3395794,0.0079953923 73.3352104,0.00766225096 L73.3352104,0.00632968558 C73.3231118,0.00666282692 73.311013,0.00699596826 73.2989142,0.00699596826 C73.2868156,0.00699596826 73.2747168,0.00666282692 73.262618,0.00632968558 L73.262618,0.0079953923 C73.258249,0.00832853364 73.2542162,0.00832853364 73.2498472,0.00832853364 C73.129532,0.00666282692 73.0152662,0 72.8919262,0 C44.7025432,0 39.417412,19.9478375 40.1550988,27.6697208 C40.7502894,33.8658166 42.2706972,41.9181762 42.2706972,41.9181762 C42.2706972,41.9181762 39.2796208,43.2717294 39.2796208,48.7119276 Z" id="Path"></path>
                        <path d="M137.758317,109.193493 C123.536204,101.992399 102.922409,92.997975 101.9331,92.6804616 C101.922007,92.6764468 101.913603,92.6757776 101.902846,92.6724318 C101.324321,92.4673364 100.702431,92.3535802 100.05264,92.3535802 C97.6363468,92.3535802 95.5868,93.8939712 94.8264138,96.0409498 C94.8223798,96.038273 94.818346,96.0366002 94.814312,96.0339236 C92.3917876,105.865204 55.8399318,105.865204 53.185688,96.0339236 C53.181654,96.0366002 53.1776202,96.038273 53.1735862,96.0409498 C52.4132,93.894975 50.3636532,92.3535802 47.9473596,92.3535802 C47.297569,92.3535802 46.6756792,92.4673364 46.0971538,92.6724318 C46.0863968,92.6764468 46.0779928,92.6774504 46.0668998,92.6804616 C45.077927,92.997975 24.4637962,101.992399 10.241683,109.193493 C3.85470766,112.427511 0,116.449792 0,120.682856 C0,134.676859 0,154 0,154 L73.6946018,154 L73.7588076,154 L73.794104,154 L73.8962956,154 L74.000168,154 L74.1040404,154 L74.1682464,154 L74.2035428,154 L74.3050622,154 L148,154 C148,154 148,134.676859 148,120.682856 C148,116.449792 144.145292,112.427511 137.758317,109.193493 Z" id="Path"></path>
                    </g>
                </g>
                <g id="Group" stroke-linecap="round" transform="translate(178.750000, 204.750000) rotate(-180.000000) translate(-178.750000, -204.750000) translate(147.500000, 173.500000)" stroke="#FFFFFF" stroke-width="1.2">
                    <line x1="0" y1="0.518518518" x2="27.308642" y2="27.8271604" id="Line"></line>
                    <line x1="27.308642" y1="0.518518518" x2="55.308642" y2="27.8271604" id="Line-Copy" transform="translate(41.308642, 14.172839) scale(-1, 1) translate(-41.308642, -14.172839) "></line>
                    <line x1="27.3086428" y1="25.9691358" x2="27.2654328" y2="55.4814814" id="Line-Copy-2" transform="translate(27.287038, 40.725309) scale(-1, 1) translate(-27.287038, -40.725309) "></line>
                </g>
            </g>
        </g>
    </g>
</svg>