<svg fill="none" height="400" viewBox="0 0 400 400" width="400" xmlns="http://www.w3.org/2000/svg"><g fill="#fff"><path d="m140.724 144.606c1.802 23.709 11.214 13.49 13.156 23.879 3.229 17.271 18.491 29.762 27.992 34.077 5.543 2.516 11.251 3.778 17.252 3.879v.005c.021 0 .042-.002.063-.002s.041.002.062.002v-.005c6.001-.101 11.708-1.363 17.252-3.879 9.501-4.315 24.764-16.806 27.992-34.077 1.942-10.389 11.354-.17 13.156-23.879 0-9.449-5.139-11.801-5.139-11.801s2.613-13.986 3.636-24.747c1.268-13.4121-7.814-48.058-56.259-48.058-.212 0-.409.0116-.615.0139-.008 0-.015 0-.022-.0006v-.0023c-.021.0006-.042.0012-.063.0012-.02 0-.041-.0006-.062-.0012v.0029c-.008.0006-.015.0006-.022.0006-.207-.0029-.403-.0145-.615-.0145-48.444 0-57.527 34.6465-56.259 48.058 1.022 10.762 3.635 24.748 3.635 24.748s-5.14 2.351-5.14 11.8z"/><path d="m309.525 261.673c-24.418-12.462-59.811-28.027-61.51-28.577-.019-.007-.034-.008-.052-.014-.993-.354-2.061-.551-3.177-.551-4.148 0-7.667 2.665-8.973 6.381-.007-.005-.014-.008-.021-.012-4.159 17.013-14.823 61.547-19.761 81.039l-9.522-62.263s13.274-22.986 14.46-25.092c5.151-9.138.277-9.138-4.938-9.138-2.587 0-9.059 0-15.541 0-.008 0-.015 0-.022 0-.042 0-.083 0-.125 0-.111 0-.199 0-.288 0s-.178 0-.267 0c-.007 0-.014 0-.022 0-.041 0-.083 0-.125 0-6.503 0-12.974 0-15.562 0-5.216 0-9.39 1.24-4.939 9.138 1.186 2.106 14.46 25.092 14.46 25.092l-8.831 62.263c-4.751-19.492-15.894-64.026-20.451-81.039-.007.004-.014.007-.021.012-1.306-3.714-4.825-6.381-8.973-6.381-1.116 0-2.184.197-3.177.551-.019.007-.033.009-.052.014-1.698.55-37.092 16.115-61.5104 28.577-10.9662 5.597-17.5846 12.558-17.5846 19.883v57.658h126.531.11.06.176.178.179.11.06.175 126.531s0-33.44 0-57.658c0-7.325-6.618-14.286-17.585-19.883z"/></g></svg>