<?xml version="1.0" encoding="UTF-8"?>
<svg width="365px" height="400px" viewBox="0 0 365 400" version="1.1" xmlns="http://www.w3.org/2000/svg" xmlns:xlink="http://www.w3.org/1999/xlink">
    <!-- Generator: Sketch 61.2 (89653) - https://sketch.com -->
    <title>man copy</title>
    <desc>Created with Sketch.</desc>
    <g id="Page-1" stroke="none" stroke-width="1" fill="none" fill-rule="evenodd">
        <g id="man-copy" fill="#FFFFFF" fill-rule="nonzero">
            <path d="M97.0954357,121.298372 C99.6789176,155.290453 113.17347,140.638751 115.957338,155.534344 C120.586076,180.295073 142.467837,198.20363 156.08908,204.389665 C164.035771,207.996595 172.219281,209.806697 180.823435,209.95104 L180.823435,209.958506 C180.853244,209.958506 180.883054,209.955188 180.912863,209.955188 C180.942672,209.955188 180.972482,209.958506 181.002291,209.958506 L181.002291,209.95104 C189.605617,209.806697 197.788299,207.997425 205.736647,204.389665 C219.357889,198.20363 241.23965,180.295073 245.868388,155.534344 C248.652256,140.639581 262.146809,155.290453 264.73029,121.298372 C264.73029,107.751645 257.362399,104.38031 257.362399,104.38031 C257.362399,104.38031 261.10762,84.3289975 262.574905,68.8999972 C264.392451,49.6716087 251.371536,0 181.916446,0 C181.612556,0 181.331023,0.0165912149 181.034585,0.0199094579 C181.02382,0.0199094579 181.013884,0.0199094579 181.003119,0.0190798971 L181.003119,0.0157616541 C180.97331,0.0165912149 180.943501,0.0174207756 180.913691,0.0174207756 C180.883882,0.0174207756 180.854072,0.0165912149 180.824263,0.0157616541 L180.824263,0.0199094579 C180.813498,0.0207390186 180.803562,0.0207390186 180.792797,0.0207390186 C180.496359,0.0165912149 180.214826,0 179.910936,0 C110.456674,0 97.4349317,49.6724383 99.2524775,68.9008268 C100.718935,84.3298271 104.464983,104.38114 104.464983,104.38114 C104.464983,104.38114 97.0954357,107.751645 97.0954357,121.298372 Z" id="Path"></path>
            <path d="M339.104526,288.830831 C304.095511,270.964239 253.352796,248.648224 250.917523,247.860444 C250.890216,247.850482 250.869529,247.848822 250.84305,247.840521 C249.418957,247.33166 247.888119,247.04942 246.288601,247.04942 C240.340676,247.04942 235.295532,250.871275 233.423773,256.198131 C233.413843,256.191491 233.403913,256.18734 233.393983,256.180699 C227.430721,280.573032 212.142648,344.420325 205.061903,372.366127 L191.410702,283.100539 C191.410702,283.100539 210.441541,250.144907 212.142648,247.126621 C219.526782,234.024896 212.53901,234.024896 205.061903,234.024896 C201.353139,234.024896 192.074608,234.024896 182.781182,234.024896 C182.770425,234.024896 182.760495,234.024896 182.749738,234.024896 C182.69016,234.024896 182.630581,234.024896 182.571003,234.024896 C182.412126,234.024896 182.284694,234.024896 182.157263,234.024896 C182.029831,234.024896 181.902399,234.024896 181.774967,234.024896 C181.76421,234.024896 181.75428,234.024896 181.743523,234.024896 C181.683944,234.024896 181.624366,234.024896 181.564787,234.024896 C172.240745,234.024896 162.963042,234.024896 159.252622,234.024896 C151.775515,234.024896 145.79132,235.803201 152.171878,247.126621 C153.872704,250.145036 172.903823,283.100539 172.903823,283.100539 L160.242288,372.366127 C153.43105,344.420325 137.45503,280.573032 130.921369,256.180699 C130.911439,256.18734 130.90151,256.191491 130.89158,256.198131 C129.019821,250.873766 123.974676,247.04942 118.026752,247.04942 C116.427233,247.04942 114.896396,247.33166 113.472303,247.840521 C113.445824,247.850482 113.425137,247.852973 113.39783,247.860444 C110.963384,248.648224 60.2198414,270.964239 25.2108266,288.830831 C9.4887107,296.854735 0,306.834393 0,317.337024 C0,352.057466 0,400 0,400 L181.405911,400 L181.56396,400 L181.650845,400 L181.902399,400 L182.15809,400 L182.413781,400 L182.57183,400 L182.658715,400 L182.908614,400 L364.315353,400 C364.315353,400 364.315353,352.057466 364.315353,317.337024 C364.315353,306.834393 354.826642,296.854735 339.104526,288.830831 Z" id="Path"></path>
        </g>
    </g>
</svg>