<?xml version="1.0" encoding="UTF-8"?>
<svg width="384px" height="264px" viewBox="0 0 384 264" version="1.1" xmlns="http://www.w3.org/2000/svg" xmlns:xlink="http://www.w3.org/1999/xlink">
    <!-- Generator: Sketch 61.2 (89653) - https://sketch.com -->
    <title>Team</title>
    <desc>Created with Sketch.</desc>
    <g id="Page-1" stroke="none" stroke-width="1" fill="none" fill-rule="evenodd">
        <g id="Team" transform="translate(-8.000000, -68.000000)">
            <rect id="Rectangle" x="0" y="0" width="400" height="400"></rect>
            <path d="M282,147.99529 C283.078796,162.566204 288.713774,156.285662 289.876244,162.670749 C291.809086,173.284588 300.946346,180.9612 306.634228,183.612882 C309.95256,185.159015 313.369784,185.934926 316.962658,185.9968 L316.962658,186 C316.975104,186 316.987552,185.998578 317,185.998578 C317.012448,185.998578 317.024896,186 317.037342,186 L317.037342,185.9968 C320.62987,185.934926 324.046748,185.15937 327.365772,183.612882 C333.053654,180.9612 342.190914,173.284588 344.123756,162.670749 C345.286226,156.286018 350.921204,162.566204 352,147.99529 C352,142.188403 348.923358,140.743259 348.923358,140.743259 C348.923358,140.743259 350.487266,132.148141 351.099966,125.534406 C351.858926,117.292039 346.421728,96 317.41907,96 C317.292174,96 317.174612,96.007112 317.050828,96.0085344 C317.046332,96.0085344 317.042184,96.0085344 317.037688,96.0081788 L317.037688,96.0067564 C317.025242,96.007112 317.012794,96.0074676 317.000346,96.0074676 C316.987898,96.0074676 316.97545,96.007112 316.963002,96.0067564 L316.963002,96.0085344 C316.958508,96.00889 316.954358,96.00889 316.949864,96.00889 C316.826078,96.007112 316.708518,96 316.58162,96 C287.57931,96 282.141764,117.292395 282.900726,125.534762 C283.51308,132.148497 285.077334,140.743615 285.077334,140.743615 C285.077334,140.743615 282,142.188403 282,147.99529 Z" id="Path" fill="#FFFFFF" fill-rule="nonzero"></path>
            <path d="M342.648006,194 C343.316832,194 343.95694,194.18822 344.583554,194.540857 C345.601844,195.066214 366.819528,209.948364 381.458284,221.863274 C388.032368,227.214272 392,233.869526 392,240.873542 L392,240.873542 L392,296 L316.234428,296 L316.235148,256.498058 L316.235148,256.498058 C316.235148,247.159368 311.38582,238.285696 303.350828,231.151032 C293.517812,222.420074 281.25612,212.49415 271.998634,205.207546 C280.107642,199.284903 286.545808,194.818211 287.111874,194.527571 C287.707346,194.18822 288.347456,194 289.016282,194 C291.503362,194 293.61295,196.550388 294.395612,200.101112 L294.395612,200.101112 C297.14007,216.356296 334.762726,216.356296 337.256218,200.089486 C337.26037,200.093914 337.264522,200.096682 337.268674,200.101112 C338.051336,196.548727 340.160926,194 342.648006,194 Z" id="Combined-Shape" fill="#FFFFFF" fill-rule="nonzero"></path>
            <path d="M50,147.99529 C51.0787956,162.566204 56.7137734,156.285662 57.8762448,162.670749 C59.8090868,173.284588 68.9463468,180.9612 74.634227,183.612882 C77.9525606,185.159015 81.3697838,185.934926 84.962657,185.9968 L84.962657,186 C84.9751048,186 84.9875524,185.998578 85,185.998578 C85.0124476,185.998578 85.0248952,186 85.037343,186 L85.037343,185.9968 C88.6298704,185.934926 92.0467478,185.15937 95.365773,183.612882 C101.053653,180.9612 110.190913,173.284588 112.123755,162.670749 C113.286227,156.286018 118.921204,162.566204 120,147.99529 C120,142.188403 116.923358,140.743259 116.923358,140.743259 C116.923358,140.743259 118.487266,132.148141 119.099966,125.534406 C119.858927,117.292039 114.421728,96 85.4190706,96 C85.2921738,96 85.1746128,96.007112 85.0508278,96.0085344 C85.0463328,96.0085344 85.0421836,96.0085344 85.0376886,96.0081788 L85.0376886,96.0067564 C85.025241,96.007112 85.0127934,96.0074676 85.0003458,96.0074676 C84.9878982,96.0074676 84.9754504,96.007112 84.9630028,96.0067564 L84.9630028,96.0085344 C84.9585078,96.00889 84.9543586,96.00889 84.9498636,96.00889 C84.8260788,96.007112 84.7085178,96 84.581621,96 C55.5793092,96 50.1417648,117.292395 50.9007252,125.534762 C51.51308,132.148497 53.0773334,140.743615 53.0773334,140.743615 C53.0773334,140.743615 50,142.188403 50,147.99529 Z" id="Path" fill="#FFFFFF" fill-rule="nonzero"></path>
            <path d="M110.982375,194 C111.651193,194 112.291293,194.18822 112.886759,194.527571 C112.897831,194.533107 112.906481,194.534214 112.917899,194.540857 C113.467267,194.824291 119.895951,199.286525 127.998922,205.207112 C118.742368,212.494308 106.480824,222.420144 96.6480166,231.151032 C88.6131296,238.285696 83.763864,247.159368 83.763864,256.498058 L83.762,296 L8,296 L8,296 L8,240.873542 C8,233.869526 11.967581,227.214272 18.5415793,221.863274 C33.1801434,209.948364 54.397896,195.066214 55.4158278,194.540857 C55.4272458,194.535875 55.4358958,194.534214 55.4469678,194.527571 C56.0424336,194.18822 56.6825334,194 57.3513512,194 C59.8383986,194 61.94796,196.550388 62.7306118,200.101112 L62.7306118,200.101112 C65.4750332,216.356296 103.097198,216.356296 105.590659,200.089486 L105.590659,200.089486 C106.385767,196.548727 108.495328,194 110.982375,194 Z" id="Combined-Shape" fill="#FFFFFF" fill-rule="nonzero"></path>
            <path d="M154,137.327054 C155.510314,156.754939 163.399283,148.380883 165.026743,156.894333 C167.732721,171.046117 180.524885,181.281601 188.487918,184.817176 C193.133585,186.878686 197.917697,187.913235 202.94772,187.995733 L202.94772,188 C202.965146,188 202.982574,187.998103 203,187.998103 C203.017426,187.998103 203.034854,188 203.05228,188 L203.05228,187.995733 C208.081818,187.913235 212.865446,186.87916 217.512082,184.817176 C225.475114,181.281601 238.267278,171.046117 240.973258,156.894333 C242.600718,148.381357 250.489686,156.754939 252,137.327054 C252,129.584537 247.692702,127.657679 247.692702,127.657679 C247.692702,127.657679 249.882172,116.197522 250.739952,107.379208 C251.802498,96.3893858 244.19042,68 203.586698,68 C203.409044,68 203.244458,68.0094826 203.07116,68.011379 C203.064866,68.011379 203.059058,68.011379 203.052764,68.010905 L203.052764,68.0090084 C203.035338,68.0094826 203.01791,68.0099566 203.000484,68.0099566 C202.983058,68.0099566 202.96563,68.0094826 202.948204,68.0090084 L202.948204,68.011379 C202.941912,68.0118532 202.936102,68.0118532 202.92981,68.0118532 C202.75651,68.0094826 202.591924,68 202.41427,68 C161.811033,68 154.198471,96.38986 155.261015,107.379682 C156.118312,116.197996 158.308267,127.658153 158.308267,127.658153 C158.308267,127.658153 154,129.584537 154,137.327054 Z" id="Path" fill="#FFFFFF" fill-rule="nonzero"></path>
            <path d="M291.467882,233.151032 C271.287856,217.264486 242.038554,197.421618 240.634804,196.721143 C240.619064,196.712285 240.60714,196.710809 240.591876,196.703428 C239.770996,196.250961 238.888584,196 237.966584,196 C234.53806,196 231.629918,199.398302 230.550992,204.134816 C230.545268,204.12891 230.539544,204.12522 230.533822,204.119314 C227.096456,225.808394 175.232336,225.808394 171.466179,204.119314 C171.460455,204.12522 171.454731,204.12891 171.449008,204.134816 C170.370081,199.400517 167.46194,196 164.033416,196 C163.111415,196 162.229004,196.250961 161.408124,196.703428 C161.39286,196.712285 161.380936,196.7145 161.365196,196.721143 C159.961923,197.421618 130.712143,217.264486 110.532118,233.151032 C101.469518,240.285696 96,249.159368 96,258.498058 C96,289.370644 96,332 96,332 L200.566664,332 L200.657768,332 L200.70785,332 L200.852852,332 L201.000238,332 L201.147624,332 L201.238728,332 L201.28881,332 L201.432858,332 L306,332 C306,332 306,289.370644 306,258.498058 C306,249.159368 300.530482,240.285696 291.467882,233.151032 Z" id="Path" fill="#FFFFFF" fill-rule="nonzero"></path>
        </g>
    </g>
</svg>