<svg fill="none" height="400" viewBox="0 0 400 400" width="400" xmlns="http://www.w3.org/2000/svg"><g fill="#fff"><path d="m274.872 154.308c.975 12.928 6.068 7.356 7.119 13.021 1.747 9.417 10.005 16.228 15.146 18.581 2.999 1.371 6.087 2.06 9.335 2.115v.003c.011 0 .022-.002.033-.002.012 0 .023.002.034.002v-.003c3.247-.055 6.335-.743 9.335-2.115 5.141-2.353 13.399-9.164 15.146-18.581 1.051-5.665 6.143-.093 7.118-13.021 0-5.152-2.78-6.434-2.78-6.434s1.413-7.626 1.967-13.494c.686-7.313-4.228-26.204-30.441-26.204-.115 0-.221.006-.333.007-.004 0-.007 0-.012 0v-.001c-.011 0-.022 0-.033 0-.012 0-.023 0-.034 0v.001c-.004 0-.008 0-.012 0-.112-.001-.218-.007-.333-.007-26.212 0-31.127 18.891-30.441 26.204.554 5.868 1.968 13.494 1.968 13.494s-2.782 1.282-2.782 6.434z"/><path d="m329.686 195.126c.605 0 1.183.167 1.75.479.92.467 20.097 13.671 33.327 24.242 5.942 4.748 9.528 10.653 9.528 16.867v48.91h-68.477v-35.047c0-8.286-4.383-16.159-11.645-22.489-8.887-7.747-19.969-16.554-28.336-23.019 7.329-5.254 13.148-9.218 13.66-9.475.538-.301 1.116-.468 1.721-.468 2.248 0 4.154 2.262 4.862 5.413 2.48 14.422 36.484 14.422 38.737-.011.004.004.008.007.011.011.708-3.152 2.614-5.413 4.862-5.413z"/><path d="m65.1902 154.308c.975 12.928 6.0679 7.356 7.1186 13.021 1.7469 9.417 10.0051 16.228 15.1459 18.581 2.9991 1.371 6.0876 2.06 9.3348 2.115v.003c.0113 0 .0225-.002.0338-.002.0112 0 .0225.002.0337.002v-.003c3.247-.055 6.335-.743 9.335-2.115 5.141-2.353 13.399-9.164 15.146-18.581 1.05-5.665 6.143-.093 7.118-13.021 0-5.152-2.78-6.434-2.78-6.434s1.413-7.626 1.967-13.494c.686-7.313-4.228-26.204-30.441-26.204-.1147 0-.2209.006-.3328.007-.004 0-.0078 0-.0119 0v-.001c-.0112 0-.0225 0-.0337 0-.0113 0-.0225 0-.0338 0v.001c-.004 0-.0078 0-.0118 0-.1119-.001-.2182-.007-.3329-.007-26.2123 0-31.1268 18.891-30.4408 26.204.5534 5.868 1.9672 13.494 1.9672 13.494s-2.7813 1.282-2.7813 6.434z"/><path d="m120.306 195.126c.605 0 1.183.167 1.721.468.01.005.018.006.028.011.497.252 6.307 4.211 13.631 9.464-8.366 6.465-19.448 15.272-28.335 23.019-7.262 6.33-11.6451 14.203-11.6451 22.489l-.0017 35.047h-68.4739v-48.91c0-6.214 3.586-12.119 9.5276-16.867 13.2303-10.571 32.407-23.775 33.327-24.242.0103-.004.0181-.006.0281-.011.5382-.301 1.1167-.468 1.7212-.468 2.2478 0 4.1545 2.262 4.8618 5.413 2.4804 14.422 36.483 14.422 38.737-.011.719-3.141 2.625-5.402 4.873-5.402z"/><path d="m159.186 144.843c1.365 17.237 8.495 9.807 9.966 17.361 2.445 12.556 14.007 21.637 21.204 24.774 4.199 1.829 8.523 2.747 13.069 2.82v.004c.016 0 .031-.002.047-.002s.032.002.047.002v-.004c4.546-.073 8.869-.99 13.069-2.82 7.197-3.137 18.759-12.218 21.204-24.774 1.471-7.553 8.601-.124 9.966-17.361 0-6.87-3.893-8.579-3.893-8.579s1.979-10.168 2.755-17.992c.96-9.751-5.92-34.9393-42.618-34.9393-.16 0-.309.0084-.466.01-.005 0-.011.0001-.016-.0004v-.0016c-.016.0004-.032.0008-.048.0008-.015 0-.031-.0004-.047-.0008v.002c-.005.0005-.011.0005-.016.0005-.157-.0021-.306-.0105-.466-.0105-36.698 0-43.578 25.1883-42.618 34.9393.775 7.824 2.754 17.992 2.754 17.992s-3.893 1.709-3.893 8.579z"/><path d="m283.43 229.862c-18.239-14.095-44.675-31.701-45.944-32.322-.014-.008-.025-.009-.038-.016-.742-.401-1.54-.624-2.373-.624-3.099 0-5.727 3.015-6.702 7.218-.005-.006-.011-.009-.016-.014-3.107 19.243-49.981 19.243-53.385 0-.005.005-.011.008-.016.014-.975-4.201-3.603-7.218-6.702-7.218-.833 0-1.631.223-2.373.624-.014.008-.024.01-.039.016-1.268.621-27.704 18.227-45.943 32.322-8.19 6.33-13.134 14.203-13.134 22.489v65.214h94.508.082.045.131.134.133.082.045.131 94.508s0-37.822 0-65.214c0-8.286-4.944-16.159-13.134-22.489z"/></g></svg>